<svg width="18" height="16" viewBox="0 0 18 16" fill="none" xmlns="http://www.w3.org/2000/svg">
<path d="M4.22141 6.33999C6.0262 6.33999 7.48927 4.97446 7.48927 3.28999C7.48927 1.60552 6.0262 0.23999 4.22141 0.23999C2.41662 0.23999 0.953552 1.60552 0.953552 3.28999C0.953552 4.97446 2.41662 6.33999 4.22141 6.33999Z" fill="#D15187"/>
<path d="M13.7786 6.33999C15.5834 6.33999 17.0465 4.97446 17.0465 3.28999C17.0465 1.60552 15.5834 0.23999 13.7786 0.23999C11.9738 0.23999 10.5107 1.60552 10.5107 3.28999C10.5107 4.97446 11.9738 6.33999 13.7786 6.33999Z" fill="#D15187"/>
<path d="M4.22141 15.2599C6.0262 15.2599 7.48927 13.8944 7.48927 12.2099C7.48927 10.5254 6.0262 9.15991 4.22141 9.15991C2.41662 9.15991 0.953552 10.5254 0.953552 12.2099C0.953552 13.8944 2.41662 15.2599 4.22141 15.2599Z" fill="#D15187"/>
<path d="M13.7786 15.2599C15.5834 15.2599 17.0465 13.8944 17.0465 12.2099C17.0465 10.5254 15.5834 9.15991 13.7786 9.15991C11.9738 9.15991 10.5107 10.5254 10.5107 12.2099C10.5107 13.8944 11.9738 15.2599 13.7786 15.2599Z" fill="#D15187"/>
</svg>
